# xmcd
#
# Track frame offsets:
#	150
#	10670
#	20795
#	31605
#	46002
#	57261
#	68507
#	81359
#	92463
#	103811
#
# Disc length: 1523 seconds
#
# Revision: 0
# Processed by: cddbd v1.5.1PL0 Copyright (c) Steve Scherf et al.
# Submitted via: dBpowerAMP V4.0
#
DISCID=6c05f10a
DTITLE=Patsy Cline - Lovesick Blues
DYEAR=2004
DGENRE=Country
TTITLE0=Lovesick Blues
TTITLE1=Three Cigarettes In An Ashtray
TTITLE2=That's How Much I Love You
TTITLE3=Then You'll Know
TTITLE4=Cry Not For Me
TTITLE5=Just Out Of Reach
TTITLE6=Life's Railway To Heaven
TTITLE7=A Stranger In My Arms
TTITLE8=Lonely Street
TTITLE9=Gotta Lot Of Rhythm In My Soul
EXTD=
EXTT0=
EXTT1=
EXTT2=
EXTT3=
EXTT4=
EXTT5=
EXTT6=
EXTT7=
EXTT8=
EXTT9=
PLAYORDER=
